{
  "accessors": [
    {
      "bufferView": 2,
      "componentType": 5126,
      "count": 65532,
      "max": [
        6.990530014038086,
        -2.891669273376465,
        4.966353893280029
      ],
      "min": [
        -2.1528782844543457,
        -9.937263488769531,
        -4.439891338348389
      ],
      "type": "VEC3"
    },
    {
      "bufferView": 2,
      "byteOffset": 786384,
      "componentType": 5126,
      "count": 65532,
      "max": [
        0.9999992847442627,
        0.9999927878379822,
        0.9999963641166687
      ],
      "min": [
        -0.9999317526817322,
        -0.9999988079071045,
        -0.9999558925628662
      ],
      "type": "VEC3"
    },
    {
      "bufferView": 1,
      "componentType": 5126,
      "count": 65532,
      "max": [
        0.9979419708251953,
        0.2863770127296448
      ],
      "min": [
        0.005458000116050243,
        0.0004720000142697245
      ],
      "type": "VEC2"
    },
    {
      "bufferView": 0,
      "componentType": 5125,
      "count": 312405,
      "type": "SCALAR"
    },
    {
      "bufferView": 2,
      "byteOffset": 1572768,
      "componentType": 5126,
      "count": 65532,
      "max": [
        6.991549491882324,
        -0.9854507446289063,
        5.615164279937744
      ],
      "min": [
        -2.412581443786621,
        -8.15675163269043,
        -5.966135501861572
      ],
      "type": "VEC3"
    },
    {
      "bufferView": 2,
      "byteOffset": 2359152,
      "componentType": 5126,
      "count": 65532,
      "max": [
        0.9999599456787109,
        0.9999977946281433,
        0.9999755620956421
      ],
      "min": [
        -0.9998785853385925,
        -0.9999918341636658,
        -0.999932587146759
      ],
      "type": "VEC3"
    },
    {
      "bufferView": 1,
      "byteOffset": 524256,
      "componentType": 5126,
      "count": 65532,
      "max": [
        0.998528003692627,
        0.3027670085430145
      ],
      "min": [
        0.00024399999529123306,
        0.0004360000020824373
      ],
      "type": "VEC2"
    },
    {
      "bufferView": 0,
      "byteOffset": 1249620,
      "componentType": 5125,
      "count": 305622,
      "type": "SCALAR"
    },
    {
      "bufferView": 2,
      "byteOffset": 3145536,
      "componentType": 5126,
      "count": 65532,
      "max": [
        6.412234306335449,
        -0.9741811752319336,
        5.713502883911133
      ],
      "min": [
        -0.8994007110595703,
        -7.665239334106445,
        -2.3937950134277344
      ],
      "type": "VEC3"
    },
    {
      "bufferView": 2,
      "byteOffset": 3931920,
      "componentType": 5126,
      "count": 65532,
      "max": [
        0.999862551689148,
        0.9999927878379822,
        0.9999533891677856
      ],
      "min": [
        -0.999941885471344,
        -0.9999988079071045,
        -0.999654233455658
      ],
      "type": "VEC3"
    },
    {
      "bufferView": 1,
      "byteOffset": 1048512,
      "componentType": 5126,
      "count": 65532,
      "max": [
        0.9989489912986755,
        0.2863770127296448
      ],
      "min": [
        0.00024399999529123306,
        0.007296999916434288
      ],
      "type": "VEC2"
    },
    {
      "bufferView": 0,
      "byteOffset": 2472108,
      "componentType": 5125,
      "count": 298794,
      "type": "SCALAR"
    },
    {
      "bufferView": 2,
      "byteOffset": 4718304,
      "componentType": 5126,
      "count": 65532,
      "max": [
        7.224266052246094,
        -0.8455667495727539,
        5.499411582946777
      ],
      "min": [
        -4.067634582519531,
        -12.639666557312012,
        -4.285156726837158
      ],
      "type": "VEC3"
    },
    {
      "bufferView": 2,
      "byteOffset": 5504688,
      "componentType": 5126,
      "count": 65532,
      "max": [
        0.9999744296073914,
        0.999988853931427,
        0.9999660849571228
      ],
      "min": [
        -0.9998310208320618,
        -0.9999954104423523,
        -0.99998539686203
      ],
      "type": "VEC3"
    },
    {
      "bufferView": 1,
      "byteOffset": 1572768,
      "componentType": 5126,
      "count": 65532,
      "max": [
        0.9994570016860962,
        0.28540000319480896
      ],
      "min": [
        0.0007140000234358013,
        0.0024399999529123306
      ],
      "type": "VEC2"
    },
    {
      "bufferView": 0,
      "byteOffset": 3667284,
      "componentType": 5125,
      "count": 248484,
      "type": "SCALAR"
    },
    {
      "bufferView": 2,
      "byteOffset": 6291072,
      "componentType": 5126,
      "count": 65532,
      "max": [
        5.417716979980469,
        -1.0054054260253906,
        4.989643096923828
      ],
      "min": [
        -4.8594207763671875,
        -12.278931617736816,
        -3.3314294815063477
      ],
      "type": "VEC3"
    },
    {
      "bufferView": 2,
      "byteOffset": 7077456,
      "componentType": 5126,
      "count": 65532,
      "max": [
        0.9984645247459412,
        0.9999827742576599,
        0.9999660849571228
      ],
      "min": [
        -0.9999867677688599,
        -0.9999732375144958,
        -0.9989556074142456
      ],
      "type": "VEC3"
    },
    {
      "bufferView": 1,
      "byteOffset": 2097024,
      "componentType": 5126,
      "count": 65532,
      "max": [
        0.9996330142021179,
        0.2878420054912567
      ],
      "min": [
        0.00024399999529123306,
        0.0022350000217556953
      ],
      "type": "VEC2"
    },
    {
      "bufferView": 0,
      "byteOffset": 4661220,
      "componentType": 5125,
      "count": 285129,
      "type": "SCALAR"
    },
    {
      "bufferView": 2,
      "byteOffset": 7863840,
      "componentType": 5126,
      "count": 65533,
      "max": [
        5.493880271911621,
        -7.493968963623047,
        4.9316301345825195
      ],
      "min": [
        -4.96494197845459,
        -12.745306015014648,
        -2.227166175842285
      ],
      "type": "VEC3"
    },
    {
      "bufferView": 2,
      "byteOffset": 8650236,
      "componentType": 5126,
      "count": 65533,
      "max": [
        0.9999902844429016,
        0.9994181394577026,
        0.999815046787262
      ],
      "min": [
        -0.9997645020484924,
        -0.9999979734420776,
        -0.9999539256095886
      ],
      "type": "VEC3"
    },
    {
      "bufferView": 1,
      "byteOffset": 2621280,
      "componentType": 5126,
      "count": 65533,
      "max": [
        0.9994980096817017,
        0.28540000319480896
      ],
      "min": [
        0.0031739999540150166,
        0.0027089999057352543
      ],
      "type": "VEC2"
    },
    {
      "bufferView": 0,
      "byteOffset": 5801736,
      "componentType": 5125,
      "count": 312306,
      "type": "SCALAR"
    },
    {
      "bufferView": 2,
      "byteOffset": 9436632,
      "componentType": 5126,
      "count": 65532,
      "max": [
        5.493880271911621,
        -2.559144973754883,
        4.779698848724365
      ],
      "min": [
        -4.6179399490356445,
        -11.945173263549805,
        -6.0784592628479
      ],
      "type": "VEC3"
    },
    {
      "bufferView": 2,
      "byteOffset": 10223016,
      "componentType": 5126,
      "count": 65532,
      "max": [
        0.9999902844429016,
        0.9999874234199524,
        0.9999832510948181
      ],
      "min": [
        -0.9998058080673218,
        -0.9999962449073792,
        -0.9999955892562866
      ],
      "type": "VEC3"
    },
    {
      "bufferView": 1,
      "byteOffset": 3145544,
      "componentType": 5126,
      "count": 65532,
      "max": [
        0.9994580149650574,
        0.30444300174713135
      ],
      "min": [
        0.0012209999840706587,
        0.005204000044614077
      ],
      "type": "VEC2"
    },
    {
      "bufferView": 0,
      "byteOffset": 7050960,
      "componentType": 5125,
      "count": 298842,
      "type": "SCALAR"
    },
    {
      "bufferView": 2,
      "byteOffset": 11009400,
      "componentType": 5126,
      "count": 65532,
      "max": [
        4.978239059448242,
        -4.298155784606934,
        -2.1851468086242676
      ],
      "min": [
        -3.842660903930664,
        -9.516765594482422,
        -6.1353840827941895
      ],
      "type": "VEC3"
    },
    {
      "bufferView": 2,
      "byteOffset": 11795784,
      "componentType": 5126,
      "count": 65532,
      "max": [
        0.9999262094497681,
        0.999997615814209,
        0.9998027086257935
      ],
      "min": [
        -0.9996107816696167,
        -0.9999504685401917,
        -0.9999896883964539
      ],
      "type": "VEC3"
    },
    {
      "bufferView": 1,
      "byteOffset": 3669800,
      "componentType": 5126,
      "count": 65532,
      "max": [
        0.9981579780578613,
        0.30105099081993103
      ],
      "min": [
        0.00024399999529123306,
        0.07349400222301483
      ],
      "type": "VEC2"
    },
    {
      "bufferView": 0,
      "byteOffset": 8246328,
      "componentType": 5125,
      "count": 293733,
      "type": "SCALAR"
    },
    {
      "bufferView": 2,
      "byteOffset": 12582168,
      "componentType": 5126,
      "count": 65532,
      "max": [
        5.257328033447266,
        -0.8489561080932617,
        -2.1279006004333496
      ],
      "min": [
        -3.842660903930664,
        -9.663285255432129,
        -6.207502365112305
      ],
      "type": "VEC3"
    },
    {
      "bufferView": 2,
      "byteOffset": 13368552,
      "componentType": 5126,
      "count": 65532,
      "max": [
        0.9999744296073914,
        0.9999671578407288,
        0.9999387860298157
      ],
      "min": [
        -0.9998894333839417,
        -0.9999871253967285,
        -0.9999955892562866
      ],
      "type": "VEC3"
    },
    {
      "bufferView": 1,
      "byteOffset": 4194056,
      "componentType": 5126,
      "count": 65532,
      "max": [
        0.9995149970054626,
        0.3035849928855896
      ],
      "min": [
        0.00024399999529123306,
        0.06866300106048584
      ],
      "type": "VEC2"
    },
    {
      "bufferView": 0,
      "byteOffset": 9421260,
      "componentType": 5125,
      "count": 250671,
      "type": "SCALAR"
    },
    {
      "bufferView": 2,
      "byteOffset": 14154936,
      "componentType": 5126,
      "count": 65534,
      "max": [
        5.241408348083496,
        -0.8368158340454102,
        4.985393524169922
      ],
      "min": [
        -4.989167213439941,
        -12.820626258850098,
        -5.966289520263672
      ],
      "type": "VEC3"
    },
    {
      "bufferView": 2,
      "byteOffset": 14941344,
      "componentType": 5126,
      "count": 65534,
      "max": [
        0.9997005462646484,
        0.9992845058441162,
        0.9999650120735168
      ],
      "min": [
        -0.9998067617416382,
        -0.999882698059082,
        -0.9990130066871643
      ],
      "type": "VEC3"
    },
    {
      "bufferView": 1,
      "byteOffset": 4718312,
      "componentType": 5126,
      "count": 65534,
      "max": [
        0.9995099902153015,
        0.3027240037918091
      ],
      "min": [
        0.00024399999529123306,
        0.0004400000034365803
      ],
      "type": "VEC2"
    },
    {
      "bufferView": 0,
      "byteOffset": 10423944,
      "componentType": 5125,
      "count": 280032,
      "type": "SCALAR"
    },
    {
      "bufferView": 2,
      "byteOffset": 15727752,
      "componentType": 5126,
      "count": 35239,
      "max": [
        5.371581077575684,
        -7.495707035064697,
        4.942071437835693
      ],
      "min": [
        -4.985469818115234,
        -12.83074951171875,
        -2.188971519470215
      ],
      "type": "VEC3"
    },
    {
      "bufferView": 2,
      "byteOffset": 16150620,
      "componentType": 5126,
      "count": 35239,
      "max": [
        0.9990218877792358,
        0.9989691972732544,
        0.9999984502792358
      ],
      "min": [
        -0.9999983906745911,
        -0.9999785423278809,
        -0.999372124671936
      ],
      "type": "VEC3"
    },
    {
      "bufferView": 1,
      "byteOffset": 5242584,
      "componentType": 5126,
      "count": 35239,
      "max": [
        0.9994720220565796,
        0.2863770127296448
      ],
      "min": [
        0.00024399999529123306,
        0.0009599999757483602
      ],
      "type": "VEC2"
    },
    {
      "bufferView": 0,
      "byteOffset": 11544072,
      "componentType": 5125,
      "count": 113979,
      "type": "SCALAR"
    }
  ],
  "asset": {
    "extras": {
      "author": "Renafox (https://sketchfab.com/kryik1023)",
      "license": "CC-BY-4.0 (http://creativecommons.org/licenses/by/4.0/)",
      "source": "https://sketchfab.com/3d-models/free-chair-raw-scan-5b254c22d7ac4d448138b6290e1c2d27",
      "title": "Free Chair! (Raw Scan)"
    },
    "generator": "Sketchfab-12.67.0",
    "version": "2.0"
  },
  "bufferViews": [
    {
      "buffer": 0,
      "byteLength": 11999988,
      "name": "floatBufferViews",
      "target": 34963
    },
    {
      "buffer": 0,
      "byteLength": 5524496,
      "byteOffset": 11999988,
      "byteStride": 8,
      "name": "floatBufferViews",
      "target": 34962
    },
    {
      "buffer": 0,
      "byteLength": 16573488,
      "byteOffset": 17524484,
      "byteStride": 12,
      "name": "floatBufferViews",
      "target": 34962
    }
  ],
  "buffers": [
    {
      "byteLength": 34097972,
      "uri": "scene.bin"
    }
  ],
  "extensionsUsed": [
    "KHR_materials_unlit"
  ],
  "images": [
    {
      "uri": "textures/chair_Material_u1_v1_baseColor.png"
    }
  ],
  "materials": [
    {
      "doubleSided": true,
      "extensions": {
        "KHR_materials_unlit": {}
      },
      "name": "chair_Material_u1_v1",
      "pbrMetallicRoughness": {
        "baseColorTexture": {
          "index": 0
        },
        "metallicFactor": 0.0
      }
    }
  ],
  "meshes": [
    {
      "name": "Object_0",
      "primitives": [
        {
          "attributes": {
            "NORMAL": 1,
            "POSITION": 0,
            "TEXCOORD_0": 2
          },
          "indices": 3,
          "material": 0,
          "mode": 4
        }
      ]
    },
    {
      "name": "Object_1",
      "primitives": [
        {
          "attributes": {
            "NORMAL": 5,
            "POSITION": 4,
            "TEXCOORD_0": 6
          },
          "indices": 7,
          "material": 0,
          "mode": 4
        }
      ]
    },
    {
      "name": "Object_2",
      "primitives": [
        {
          "attributes": {
            "NORMAL": 9,
            "POSITION": 8,
            "TEXCOORD_0": 10
          },
          "indices": 11,
          "material": 0,
          "mode": 4
        }
      ]
    },
    {
      "name": "Object_3",
      "primitives": [
        {
          "attributes": {
            "NORMAL": 13,
            "POSITION": 12,
            "TEXCOORD_0": 14
          },
          "indices": 15,
          "material": 0,
          "mode": 4
        }
      ]
    },
    {
      "name": "Object_4",
      "primitives": [
        {
          "attributes": {
            "NORMAL": 17,
            "POSITION": 16,
            "TEXCOORD_0": 18
          },
          "indices": 19,
          "material": 0,
          "mode": 4
        }
      ]
    },
    {
      "name": "Object_5",
      "primitives": [
        {
          "attributes": {
            "NORMAL": 21,
            "POSITION": 20,
            "TEXCOORD_0": 22
          },
          "indices": 23,
          "material": 0,
          "mode": 4
        }
      ]
    },
    {
      "name": "Object_6",
      "primitives": [
        {
          "attributes": {
            "NORMAL": 25,
            "POSITION": 24,
            "TEXCOORD_0": 26
          },
          "indices": 27,
          "material": 0,
          "mode": 4
        }
      ]
    },
    {
      "name": "Object_7",
      "primitives": [
        {
          "attributes": {
            "NORMAL": 29,
            "POSITION": 28,
            "TEXCOORD_0": 30
          },
          "indices": 31,
          "material": 0,
          "mode": 4
        }
      ]
    },
    {
      "name": "Object_8",
      "primitives": [
        {
          "attributes": {
            "NORMAL": 33,
            "POSITION": 32,
            "TEXCOORD_0": 34
          },
          "indices": 35,
          "material": 0,
          "mode": 4
        }
      ]
    },
    {
      "name": "Object_9",
      "primitives": [
        {
          "attributes": {
            "NORMAL": 37,
            "POSITION": 36,
            "TEXCOORD_0": 38
          },
          "indices": 39,
          "material": 0,
          "mode": 4
        }
      ]
    },
    {
      "name": "Object_10",
      "primitives": [
        {
          "attributes": {
            "NORMAL": 41,
            "POSITION": 40,
            "TEXCOORD_0": 42
          },
          "indices": 43,
          "material": 0,
          "mode": 4
        }
      ]
    }
  ],
  "nodes": [
    {
      "children": [
        1
      ],
      "matrix": [
        4.440892098500626e-16,
        4.996003610813204e-16,
        -1.0,
        0.0,
        -0.0051764510571956635,
        -0.9999865889549255,
        -6.661308369248887e-16,
        0.0,
        -0.9999865889549255,
        0.0051764510571956635,
        -3.87428655588896e-16,
        0.0,
        0.8351660966873169,
        -7.079474925994875,
        7.951383113861082,
        1.0
      ],
      "name": "Sketchfab_model"
    },
    {
      "children": [
        2,
        3,
        4,
        5,
        6,
        7,
        8,
        9,
        10,
        11,
        12
      ],
      "name": "chair.obj.cleaner.materialmerger.gles"
    },
    {
      "mesh": 0,
      "name": "Object_2"
    },
    {
      "mesh": 1,
      "name": "Object_3"
    },
    {
      "mesh": 2,
      "name": "Object_4"
    },
    {
      "mesh": 3,
      "name": "Object_5"
    },
    {
      "mesh": 4,
      "name": "Object_6"
    },
    {
      "mesh": 5,
      "name": "Object_7"
    },
    {
      "mesh": 6,
      "name": "Object_8"
    },
    {
      "mesh": 7,
      "name": "Object_9"
    },
    {
      "mesh": 8,
      "name": "Object_10"
    },
    {
      "mesh": 9,
      "name": "Object_11"
    },
    {
      "mesh": 10,
      "name": "Object_12"
    }
  ],
  "samplers": [
    {
      "magFilter": 9729,
      "minFilter": 9987,
      "wrapS": 10497,
      "wrapT": 10497
    }
  ],
  "scene": 0,
  "scenes": [
    {
      "name": "Sketchfab_Scene",
      "nodes": [
        0
      ]
    }
  ],
  "textures": [
    {
      "sampler": 0,
      "source": 0
    }
  ]
}
