{
  "accessors": [
    {
      "bufferView": 2,
      "componentType": 5126,
      "count": 3077,
      "max": [
        100.99530792236328,
        134.41268920898438,
        122.03527069091797
      ],
      "min": [
        -276.66021728515625,
        -123.6014175415039,
        -153.42002868652344
      ],
      "type": "VEC3"
    },
    {
      "bufferView": 2,
      "byteOffset": 36924,
      "componentType": 5126,
      "count": 3077,
      "max": [
        0.9999707341194153,
        0.9997767210006714,
        0.9993928074836731
      ],
      "min": [
        -0.9999644756317139,
        -0.9999127388000488,
        -0.9968313574790955
      ],
      "type": "VEC3"
    },
    {
      "bufferView": 3,
      "componentType": 5126,
      "count": 3077,
      "max": [
        0.997503399848938,
        0.9999479055404663,
        0.9962835907936096,
        1.0
      ],
      "min": [
        -0.9993575811386108,
        -0.9998162388801575,
        -0.9998098611831665,
        -1.0
      ],
      "type": "VEC4"
    },
    {
      "bufferView": 1,
      "componentType": 5126,
      "count": 3077,
      "max": [
        0.9750655889511108,
        0.9772862195968628
      ],
      "min": [
        0.003953456878662109,
        0.009068583138287067
      ],
      "type": "VEC2"
    },
    {
      "bufferView": 0,
      "componentType": 5125,
      "count": 11922,
      "type": "SCALAR"
    }
  ],
  "asset": {
    "extras": {
      "author": "Bindestrek (https://sketchfab.com/KNUT-OLAV_UTISTOG)",
      "license": "CC-BY-4.0 (http://creativecommons.org/licenses/by/4.0/)",
      "source": "https://sketchfab.com/3d-models/plant-9dc8d0836aa04a3baa38bd5630f75924",
      "title": "Plant"
    },
    "generator": "Sketchfab-12.66.0",
    "version": "2.0"
  },
  "bufferViews": [
    {
      "buffer": 0,
      "byteLength": 47688,
      "name": "floatBufferViews",
      "target": 34963
    },
    {
      "buffer": 0,
      "byteLength": 24616,
      "byteOffset": 47688,
      "byteStride": 8,
      "name": "floatBufferViews",
      "target": 34962
    },
    {
      "buffer": 0,
      "byteLength": 73848,
      "byteOffset": 72304,
      "byteStride": 12,
      "name": "floatBufferViews",
      "target": 34962
    },
    {
      "buffer": 0,
      "byteLength": 49232,
      "byteOffset": 146152,
      "byteStride": 16,
      "name": "floatBufferViews",
      "target": 34962
    }
  ],
  "buffers": [
    {
      "byteLength": 195384,
      "uri": "scene.bin"
    }
  ],
  "images": [
    {
      "uri": "textures/Scene_-_Root_baseColor.png"
    },
    {
      "uri": "textures/Scene_-_Root_metallicRoughness.png"
    },
    {
      "uri": "textures/Scene_-_Root_normal.png"
    }
  ],
  "materials": [
    {
      "doubleSided": true,
      "name": "Scene_-_Root",
      "normalTexture": {
        "index": 2
      },
      "pbrMetallicRoughness": {
        "baseColorTexture": {
          "index": 0
        },
        "metallicRoughnessTexture": {
          "index": 1
        },
        "roughnessFactor": 0.28651516076290245
      }
    }
  ],
  "meshes": [
    {
      "name": "Cylinder008__0",
      "primitives": [
        {
          "attributes": {
            "NORMAL": 1,
            "POSITION": 0,
            "TANGENT": 2,
            "TEXCOORD_0": 3
          },
          "indices": 4,
          "material": 0,
          "mode": 4
        }
      ]
    }
  ],
  "nodes": [
    {
      "children": [
        1
      ],
      "matrix": [
        1.0,
        0.0,
        0.0,
        0.0,
        0.0,
        2.220446049250313e-16,
        -1.0,
        0.0,
        0.0,
        1.0,
        2.220446049250313e-16,
        0.0,
        0.0,
        0.0,
        0.0,
        1.0
      ],
      "name": "Sketchfab_model"
    },
    {
      "children": [
        2
      ],
      "matrix": [
        1.0,
        0.0,
        0.0,
        0.0,
        0.0,
        0.0,
        1.0,
        0.0,
        0.0,
        -1.0,
        0.0,
        0.0,
        0.0,
        0.0,
        0.0,
        1.0
      ],
      "name": "PlanteKontor_Model.FBX"
    },
    {
      "children": [
        3
      ],
      "name": "RootNode"
    },
    {
      "children": [
        4
      ],
      "matrix": [
        -0.0006285248028373537,
        0.0025696966073589706,
        -0.0006025024280028443,
        0.0,
        -0.0018775397445140206,
        -1.2048978534219184e-18,
        0.001958631605272795,
        0.0,
        0.0018550456429402892,
        0.0008706621638333991,
        0.0017782424796636848,
        0.0,
        0.0,
        0.0,
        0.0,
        1.0
      ],
      "name": "Cylinder008"
    },
    {
      "children": [
        5
      ],
      "matrix": [
        1.0,
        4.258479260540579e-16,
        0.0,
        0.0,
        -4.258479260540579e-16,
        1.0,
        -0.0,
        0.0,
        -0.0,
        0.0,
        1.0,
        0.0,
        259.4300537109375,
        8.437360763549805,
        100.7343978881836,
        1.0
      ],
      "name": "Object_4"
    },
    {
      "mesh": 0,
      "name": "Cylinder008__0"
    }
  ],
  "samplers": [
    {
      "magFilter": 9729,
      "minFilter": 9987,
      "wrapS": 10497,
      "wrapT": 10497
    }
  ],
  "scene": 0,
  "scenes": [
    {
      "name": "Sketchfab_Scene",
      "nodes": [
        0
      ]
    }
  ],
  "textures": [
    {
      "sampler": 0,
      "source": 0
    },
    {
      "sampler": 0,
      "source": 1
    },
    {
      "sampler": 0,
      "source": 2
    }
  ]
}
