{
  "accessors": [
    {
      "bufferView": 2,
      "componentType": 5126,
      "count": 5529,
      "max": [
        27.8984375,
        196.55078125,
        27.90625
      ],
      "min": [
        -27.8984375,
        -0.27734375,
        -27.90625
      ],
      "type": "VEC3"
    },
    {
      "bufferView": 2,
      "byteOffset": 66348,
      "componentType": 5126,
      "count": 5529,
      "max": [
        1.0,
        1.0,
        1.0
      ],
      "min": [
        -1.0,
        -1.0,
        -1.0
      ],
      "type": "VEC3"
    },
    {
      "bufferView": 3,
      "componentType": 5126,
      "count": 5529,
      "max": [
        1.0,
        1.0,
        1.0,
        1.0
      ],
      "min": [
        -0.9998599290847778,
        -1.0,
        -1.0,
        1.0
      ],
      "type": "VEC4"
    },
    {
      "bufferView": 1,
      "componentType": 5126,
      "count": 5529,
      "max": [
        0.9363729357719421,
        0.9980080127716064
      ],
      "min": [
        0.00186900794506073,
        0.00199203216470778
      ],
      "type": "VEC2"
    },
    {
      "bufferView": 0,
      "componentType": 5125,
      "count": 14571,
      "type": "SCALAR"
    },
    {
      "bufferView": 2,
      "byteOffset": 132696,
      "componentType": 5126,
      "count": 184,
      "max": [
        26.6015625,
        191.13671875,
        26.59375
      ],
      "min": [
        -26.6015625,
        156.611328125,
        -26.59375
      ],
      "type": "VEC3"
    },
    {
      "bufferView": 2,
      "byteOffset": 134904,
      "componentType": 5126,
      "count": 184,
      "max": [
        0.9230455756187439,
        0.5133543014526367,
        0.9226078391075134
      ],
      "min": [
        -0.922985851764679,
        0.04431739076972008,
        -0.9226081967353821
      ],
      "type": "VEC3"
    },
    {
      "bufferView": 3,
      "byteOffset": 88464,
      "componentType": 5126,
      "count": 184,
      "max": [
        0.9241337776184082,
        0.8913800120353699,
        0.9240171909332275,
        1.0
      ],
      "min": [
        -0.3830302655696869,
        -0.8913035988807678,
        -0.9240570664405823,
        1.0
      ],
      "type": "VEC4"
    },
    {
      "bufferView": 1,
      "byteOffset": 44232,
      "componentType": 5126,
      "count": 184,
      "max": [
        0.9363729357719421,
        0.41465482115745544
      ],
      "min": [
        0.3355826437473297,
        0.0019920857157558203
      ],
      "type": "VEC2"
    },
    {
      "bufferView": 0,
      "byteOffset": 58284,
      "componentType": 5125,
      "count": 480,
      "type": "SCALAR"
    }
  ],
  "asset": {
    "extras": {
      "author": "Matt LeMoine (https://sketchfab.com/Matt_LeMoine)",
      "license": "CC-BY-NC-SA-4.0 (http://creativecommons.org/licenses/by-nc-sa/4.0/)",
      "source": "https://sketchfab.com/3d-models/lamp-2b14055dc8054ec79b4d0d7e8f00be1e",
      "title": "Lamp"
    },
    "generator": "Sketchfab-12.67.0",
    "version": "2.0"
  },
  "bufferViews": [
    {
      "buffer": 0,
      "byteLength": 60204,
      "name": "floatBufferViews",
      "target": 34963
    },
    {
      "buffer": 0,
      "byteLength": 45704,
      "byteOffset": 60204,
      "byteStride": 8,
      "name": "floatBufferViews",
      "target": 34962
    },
    {
      "buffer": 0,
      "byteLength": 137112,
      "byteOffset": 105908,
      "byteStride": 12,
      "name": "floatBufferViews",
      "target": 34962
    },
    {
      "buffer": 0,
      "byteLength": 91408,
      "byteOffset": 243020,
      "byteStride": 16,
      "name": "floatBufferViews",
      "target": 34962
    }
  ],
  "buffers": [
    {
      "byteLength": 334428,
      "uri": "scene.bin"
    }
  ],
  "images": [
    {
      "uri": "textures/lambert1_baseColor.png"
    },
    {
      "uri": "textures/lambert1_metallicRoughness.png"
    },
    {
      "uri": "textures/lambert1_normal.png"
    }
  ],
  "materials": [
    {
      "doubleSided": true,
      "name": "lambert1",
      "normalTexture": {
        "index": 2,
        "scale": 0.5
      },
      "occlusionTexture": {
        "index": 1
      },
      "pbrMetallicRoughness": {
        "baseColorTexture": {
          "index": 0
        },
        "metallicRoughnessTexture": {
          "index": 1
        }
      }
    },
    {
      "doubleSided": true,
      "name": "lambert5",
      "normalTexture": {
        "index": 2
      },
      "occlusionTexture": {
        "index": 1
      },
      "pbrMetallicRoughness": {
        "baseColorTexture": {
          "index": 0
        },
        "metallicRoughnessTexture": {
          "index": 1
        }
      }
    }
  ],
  "meshes": [
    {
      "name": "pSphere4_lambert1_0",
      "primitives": [
        {
          "attributes": {
            "NORMAL": 1,
            "POSITION": 0,
            "TANGENT": 2,
            "TEXCOORD_0": 3
          },
          "indices": 4,
          "material": 0,
          "mode": 4
        }
      ]
    },
    {
      "name": "pSphere4_lambert5_0",
      "primitives": [
        {
          "attributes": {
            "NORMAL": 6,
            "POSITION": 5,
            "TANGENT": 7,
            "TEXCOORD_0": 8
          },
          "indices": 9,
          "material": 1,
          "mode": 4
        }
      ]
    }
  ],
  "nodes": [
    {
      "children": [
        1
      ],
      "matrix": [
        -1.0,
        2.832769343193999e-16,
        6.290011496532519e-32,
        0.0,
        0.0,
        2.220446049250313e-16,
        -1.0,
        0.0,
        -2.832769343193999e-16,
        -1.0,
        -2.220446049250313e-16,
        0.0,
        -2.779987035657263e-14,
        -196.2734375,
        -2.937060317176332e-14,
        1.0
      ],
      "name": "Sketchfab_model"
    },
    {
      "children": [
        2
      ],
      "matrix": [
        1.0,
        0.0,
        0.0,
        0.0,
        0.0,
        -1.0,
        0.0,
        0.0,
        0.0,
        0.0,
        -1.0,
        0.0,
        0.0,
        0.0,
        0.0,
        1.0
      ],
      "name": "459278c1b32b485791629af9e5e5a42d.fbx"
    },
    {
      "children": [
        3
      ],
      "name": "RootNode"
    },
    {
      "children": [
        4,
        5
      ],
      "matrix": [
        1.0,
        0.0,
        0.0,
        0.0,
        0.0,
        2.220446049250313e-16,
        1.0,
        0.0,
        0.0,
        -1.0,
        2.220446049250313e-16,
        0.0,
        0.0,
        0.0,
        0.0,
        1.0
      ],
      "name": "pSphere4"
    },
    {
      "mesh": 0,
      "name": "pSphere4_lambert1_0"
    },
    {
      "mesh": 1,
      "name": "pSphere4_lambert5_0"
    }
  ],
  "samplers": [
    {
      "magFilter": 9729,
      "minFilter": 9987,
      "wrapS": 10497,
      "wrapT": 10497
    }
  ],
  "scene": 0,
  "scenes": [
    {
      "name": "Sketchfab_Scene",
      "nodes": [
        0
      ]
    }
  ],
  "textures": [
    {
      "sampler": 0,
      "source": 0
    },
    {
      "sampler": 0,
      "source": 1
    },
    {
      "sampler": 0,
      "source": 2
    }
  ]
}
