{
  "accessors": [
    {
      "bufferView": 2,
      "componentType": 5126,
      "count": 2298,
      "max": [
        29.225040435791016,
        19.051429748535156,
        61.00849533081055
      ],
      "min": [
        18.0712890625,
        11.206010818481445,
        28.63812255859375
      ],
      "type": "VEC3"
    },
    {
      "bufferView": 2,
      "byteOffset": 27576,
      "componentType": 5126,
      "count": 2298,
      "max": [
        0.9825040698051453,
        0.9992835521697998,
        0.9978435635566711
      ],
      "min": [
        -0.9995818734169006,
        -0.9966985583305359,
        -0.9965724349021912
      ],
      "type": "VEC3"
    },
    {
      "bufferView": 1,
      "componentType": 5126,
      "count": 2298,
      "max": [
        0.9847180247306824,
        0.9980080127716064
      ],
      "min": [
        0.0019650000613182783,
        0.0019919872283935547
      ],
      "type": "VEC2"
    },
    {
      "bufferView": 0,
      "componentType": 5125,
      "count": 12528,
      "type": "SCALAR"
    },
    {
      "bufferView": 2,
      "byteOffset": 55152,
      "componentType": 5126,
      "count": 2316,
      "max": [
        29.225040435791016,
        22.069673538208008,
        50.703697204589844
      ],
      "min": [
        0.5526676177978516,
        11.861461639404297,
        28.63812255859375
      ],
      "type": "VEC3"
    },
    {
      "bufferView": 2,
      "byteOffset": 82944,
      "componentType": 5126,
      "count": 2316,
      "max": [
        0.9960193037986755,
        0.997473418712616,
        0.9978435635566711
      ],
      "min": [
        -0.9580950140953064,
        -0.9969847798347473,
        -0.9991591572761536
      ],
      "type": "VEC3"
    },
    {
      "bufferView": 1,
      "byteOffset": 18384,
      "componentType": 5126,
      "count": 2316,
      "max": [
        1.0,
        0.9980080127716064
      ],
      "min": [
        0.0,
        0.0
      ],
      "type": "VEC2"
    },
    {
      "bufferView": 0,
      "byteOffset": 50112,
      "componentType": 5125,
      "count": 12528,
      "type": "SCALAR"
    },
    {
      "bufferView": 2,
      "byteOffset": 110736,
      "componentType": 5126,
      "count": 1653,
      "max": [
        19.030372619628906,
        16.179670333862305,
        67.64720916748047
      ],
      "min": [
        16.46118927001953,
        14.137456893920898,
        0.0
      ],
      "type": "VEC3"
    },
    {
      "bufferView": 2,
      "byteOffset": 130572,
      "componentType": 5126,
      "count": 1653,
      "max": [
        1.0,
        1.0,
        1.0
      ],
      "min": [
        -1.0,
        -1.0,
        -0.9855813980102539
      ],
      "type": "VEC3"
    },
    {
      "bufferView": 1,
      "byteOffset": 36912,
      "componentType": 5126,
      "count": 1653,
      "max": [
        0.19492299854755402,
        0.9980080127716064
      ],
      "min": [
        0.00038899999344721437,
        0.0019919872283935547
      ],
      "type": "VEC2"
    },
    {
      "bufferView": 0,
      "byteOffset": 100224,
      "componentType": 5125,
      "count": 7920,
      "type": "SCALAR"
    },
    {
      "bufferView": 2,
      "byteOffset": 150408,
      "componentType": 5126,
      "count": 1653,
      "max": [
        19.030372619628906,
        16.179670333862305,
        67.64720916748047
      ],
      "min": [
        16.46118927001953,
        14.137456893920898,
        0.0
      ],
      "type": "VEC3"
    },
    {
      "bufferView": 2,
      "byteOffset": 170244,
      "componentType": 5126,
      "count": 1653,
      "max": [
        1.0,
        1.0,
        1.0
      ],
      "min": [
        -1.0,
        -1.0,
        -0.9855813980102539
      ],
      "type": "VEC3"
    },
    {
      "bufferView": 1,
      "byteOffset": 50136,
      "componentType": 5126,
      "count": 1653,
      "max": [
        0.19492299854755402,
        0.9980080127716064
      ],
      "min": [
        0.00038899999344721437,
        0.0019919872283935547
      ],
      "type": "VEC2"
    },
    {
      "bufferView": 0,
      "byteOffset": 131904,
      "componentType": 5125,
      "count": 7920,
      "type": "SCALAR"
    },
    {
      "bufferView": 2,
      "byteOffset": 190080,
      "componentType": 5126,
      "count": 65532,
      "max": [
        32.50936508178711,
        28.009334564208984,
        86.25802612304688
      ],
      "min": [
        5.860177040100098,
        2.656627655029297,
        67.56171417236328
      ],
      "type": "VEC3"
    },
    {
      "bufferView": 2,
      "byteOffset": 976464,
      "componentType": 5126,
      "count": 65532,
      "max": [
        0.9999925494194031,
        0.9999669194221497,
        0.9999781847000122
      ],
      "min": [
        -0.9999225735664368,
        -0.9999964237213135,
        -0.9999982714653015
      ],
      "type": "VEC3"
    },
    {
      "bufferView": 1,
      "byteOffset": 63360,
      "componentType": 5126,
      "count": 65532,
      "max": [
        0.9878730177879333,
        0.9980080127716064
      ],
      "min": [
        0.001972000114619732,
        0.0019919872283935547
      ],
      "type": "VEC2"
    },
    {
      "bufferView": 0,
      "byteOffset": 163584,
      "componentType": 5125,
      "count": 323610,
      "type": "SCALAR"
    },
    {
      "bufferView": 2,
      "byteOffset": 1762848,
      "componentType": 5126,
      "count": 34482,
      "max": [
        35.624046325683594,
        33.88318634033203,
        86.1002197265625
      ],
      "min": [
        0.0,
        0.0,
        67.56171417236328
      ],
      "type": "VEC3"
    },
    {
      "bufferView": 2,
      "byteOffset": 2176632,
      "componentType": 5126,
      "count": 34482,
      "max": [
        0.9994644522666931,
        0.9998756051063538,
        1.0
      ],
      "min": [
        -0.998793363571167,
        -0.9999964237213135,
        -1.0
      ],
      "type": "VEC3"
    },
    {
      "bufferView": 1,
      "byteOffset": 587616,
      "componentType": 5126,
      "count": 34482,
      "max": [
        0.9878730177879333,
        0.9974449872970581
      ],
      "min": [
        0.001972000114619732,
        0.0019919872283935547
      ],
      "type": "VEC2"
    },
    {
      "bufferView": 0,
      "byteOffset": 1458024,
      "componentType": 5125,
      "count": 156474,
      "type": "SCALAR"
    },
    {
      "bufferView": 2,
      "byteOffset": 2590416,
      "componentType": 5126,
      "count": 65532,
      "max": [
        32.50936508178711,
        28.009334564208984,
        86.25802612304688
      ],
      "min": [
        5.860177040100098,
        2.656627655029297,
        67.56171417236328
      ],
      "type": "VEC3"
    },
    {
      "bufferView": 2,
      "byteOffset": 3376800,
      "componentType": 5126,
      "count": 65532,
      "max": [
        0.9999925494194031,
        0.9999669194221497,
        0.9999781847000122
      ],
      "min": [
        -0.9999225735664368,
        -0.9999964237213135,
        -0.9999982714653015
      ],
      "type": "VEC3"
    },
    {
      "bufferView": 1,
      "byteOffset": 863472,
      "componentType": 5126,
      "count": 65532,
      "max": [
        0.9878730177879333,
        0.9980080127716064
      ],
      "min": [
        0.001972000114619732,
        0.0019919872283935547
      ],
      "type": "VEC2"
    },
    {
      "bufferView": 0,
      "byteOffset": 2083920,
      "componentType": 5125,
      "count": 323610,
      "type": "SCALAR"
    },
    {
      "bufferView": 2,
      "byteOffset": 4163184,
      "componentType": 5126,
      "count": 34482,
      "max": [
        35.624046325683594,
        33.88318634033203,
        86.1002197265625
      ],
      "min": [
        0.0,
        0.0,
        67.56171417236328
      ],
      "type": "VEC3"
    },
    {
      "bufferView": 2,
      "byteOffset": 4576968,
      "componentType": 5126,
      "count": 34482,
      "max": [
        0.9994644522666931,
        0.9998756051063538,
        1.0
      ],
      "min": [
        -0.998793363571167,
        -0.9999964237213135,
        -1.0
      ],
      "type": "VEC3"
    },
    {
      "bufferView": 1,
      "byteOffset": 1387728,
      "componentType": 5126,
      "count": 34482,
      "max": [
        0.9878730177879333,
        0.9974449872970581
      ],
      "min": [
        0.001972000114619732,
        0.0019919872283935547
      ],
      "type": "VEC2"
    },
    {
      "bufferView": 0,
      "byteOffset": 3378360,
      "componentType": 5125,
      "count": 156474,
      "type": "SCALAR"
    }
  ],
  "asset": {
    "extras": {
      "author": "Mareon (https://sketchfab.com/mareoncz)",
      "license": "CC-BY-4.0 (http://creativecommons.org/licenses/by/4.0/)",
      "source": "https://sketchfab.com/3d-models/rose-2af312d679e040f5a20f097ad730dc70",
      "title": "Rose"
    },
    "generator": "Sketchfab-12.66.0",
    "version": "2.0"
  },
  "bufferViews": [
    {
      "buffer": 0,
      "byteLength": 4004256,
      "name": "floatBufferViews",
      "target": 34963
    },
    {
      "buffer": 0,
      "byteLength": 1663584,
      "byteOffset": 4004256,
      "byteStride": 8,
      "name": "floatBufferViews",
      "target": 34962
    },
    {
      "buffer": 0,
      "byteLength": 4990752,
      "byteOffset": 5667840,
      "byteStride": 12,
      "name": "floatBufferViews",
      "target": 34962
    }
  ],
  "buffers": [
    {
      "byteLength": 10658592,
      "uri": "scene.bin"
    }
  ],
  "extensionsRequired": [
    "KHR_materials_pbrSpecularGlossiness"
  ],
  "extensionsUsed": [
    "KHR_materials_pbrSpecularGlossiness"
  ],
  "materials": [
    {
      "doubleSided": true,
      "extensions": {
        "KHR_materials_pbrSpecularGlossiness": {
          "diffuseFactor": [
            0.011770263206176235,
            0.1788096234957021,
            0.006524304419465765,
            1.0
          ],
          "glossinessFactor": 0.9500000000000001,
          "specularFactor": [
            0.1,
            0.1,
            0.1
          ]
        }
      },
      "name": "green"
    },
    {
      "doubleSided": true,
      "extensions": {
        "KHR_materials_pbrSpecularGlossiness": {
          "diffuseFactor": [
            0.4108536589750779,
            0.0,
            0.0,
            1.0
          ],
          "glossinessFactor": 0.75,
          "specularFactor": [
            0.1,
            0.1,
            0.1
          ]
        }
      },
      "name": "rose"
    }
  ],
  "meshes": [
    {
      "name": "Object_0",
      "primitives": [
        {
          "attributes": {
            "NORMAL": 1,
            "POSITION": 0,
            "TEXCOORD_0": 2
          },
          "indices": 3,
          "material": 0,
          "mode": 4
        }
      ]
    },
    {
      "name": "Object_1",
      "primitives": [
        {
          "attributes": {
            "NORMAL": 5,
            "POSITION": 4,
            "TEXCOORD_0": 6
          },
          "indices": 7,
          "material": 0,
          "mode": 4
        }
      ]
    },
    {
      "name": "Object_2",
      "primitives": [
        {
          "attributes": {
            "NORMAL": 9,
            "POSITION": 8,
            "TEXCOORD_0": 10
          },
          "indices": 11,
          "material": 0,
          "mode": 4
        }
      ]
    },
    {
      "name": "Object_3",
      "primitives": [
        {
          "attributes": {
            "NORMAL": 13,
            "POSITION": 12,
            "TEXCOORD_0": 14
          },
          "indices": 15,
          "material": 0,
          "mode": 4
        }
      ]
    },
    {
      "name": "Object_4",
      "primitives": [
        {
          "attributes": {
            "NORMAL": 17,
            "POSITION": 16,
            "TEXCOORD_0": 18
          },
          "indices": 19,
          "material": 1,
          "mode": 4
        }
      ]
    },
    {
      "name": "Object_5",
      "primitives": [
        {
          "attributes": {
            "NORMAL": 21,
            "POSITION": 20,
            "TEXCOORD_0": 22
          },
          "indices": 23,
          "material": 1,
          "mode": 4
        }
      ]
    },
    {
      "name": "Object_6",
      "primitives": [
        {
          "attributes": {
            "NORMAL": 25,
            "POSITION": 24,
            "TEXCOORD_0": 26
          },
          "indices": 27,
          "material": 1,
          "mode": 4
        }
      ]
    },
    {
      "name": "Object_7",
      "primitives": [
        {
          "attributes": {
            "NORMAL": 29,
            "POSITION": 28,
            "TEXCOORD_0": 30
          },
          "indices": 31,
          "material": 1,
          "mode": 4
        }
      ]
    }
  ],
  "nodes": [
    {
      "children": [
        1
      ],
      "matrix": [
        1.0,
        0.0,
        0.0,
        0.0,
        0.0,
        2.220446049250313e-16,
        -1.0,
        0.0,
        0.0,
        1.0,
        2.220446049250313e-16,
        0.0,
        0.0,
        0.0,
        0.0,
        1.0
      ],
      "name": "Sketchfab_model"
    },
    {
      "children": [
        2
      ],
      "matrix": [
        1.0,
        0.0,
        0.0,
        0.0,
        0.0,
        1.0,
        0.0,
        0.0,
        0.0,
        0.0,
        1.0,
        0.0,
        -17.04810333251953,
        -15.158563613891602,
        -1.5796949863433838,
        1.0
      ],
      "name": "Rose.obj.cleaner.materialmerger.gles"
    },
    {
      "children": [
        3,
        4,
        5,
        6,
        7,
        8,
        9,
        10
      ],
      "name": "Object_2"
    },
    {
      "mesh": 0,
      "name": "Object_3"
    },
    {
      "mesh": 1,
      "name": "Object_4"
    },
    {
      "mesh": 2,
      "name": "Object_5"
    },
    {
      "mesh": 3,
      "name": "Object_6"
    },
    {
      "mesh": 4,
      "name": "Object_7"
    },
    {
      "mesh": 5,
      "name": "Object_8"
    },
    {
      "mesh": 6,
      "name": "Object_9"
    },
    {
      "mesh": 7,
      "name": "Object_10"
    }
  ],
  "scene": 0,
  "scenes": [
    {
      "name": "Sketchfab_Scene",
      "nodes": [
        0
      ]
    }
  ]
}
