{
  "accessors": [
    {
      "bufferView": 2,
      "componentType": 5126,
      "count": 559,
      "max": [
        17329.06640625,
        17291.29296875,
        17578.2578125
      ],
      "min": [
        -17827.44921875,
        -17865.22265625,
        -17578.2578125
      ],
      "type": "VEC3"
    },
    {
      "bufferView": 2,
      "byteOffset": 6708,
      "componentType": 5126,
      "count": 559,
      "max": [
        1,
        0,
        0
      ],
      "min": [
        1,
        0,
        0
      ],
      "type": "VEC3"
    },
    {
      "bufferView": 3,
      "componentType": 5126,
      "count": 559,
      "max": [
        0,
        1,
        0,
        1
      ],
      "min": [
        0,
        -1,
        0,
        -1
      ],
      "type": "VEC4"
    },
    {
      "bufferView": 1,
      "componentType": 5126,
      "count": 559,
      "max": [
        1,
        1
      ],
      "min": [
        0,
        -0
      ],
      "type": "VEC2"
    },
    {
      "bufferView": 0,
      "componentType": 5125,
      "count": 2880,
      "max": [
        558
      ],
      "min": [
        0
      ],
      "type": "SCALAR"
    },
    {
      "bufferView": 2,
      "byteOffset": 13416,
      "componentType": 5126,
      "count": 2510,
      "max": [
        -410.27081298828125,
        199.79299926757812,
        546.977783203125
      ],
      "min": [
        -976.77581787109375,
        -1567.340576171875,
        -394.32281494140625
      ],
      "type": "VEC3"
    },
    {
      "bufferView": 2,
      "byteOffset": 43536,
      "componentType": 5126,
      "count": 2510,
      "max": [
        0.99959594011306763,
        0.99792104959487915,
        0.99983865022659302
      ],
      "min": [
        -0.99996638298034668,
        -0.99906647205352783,
        -1
      ],
      "type": "VEC3"
    },
    {
      "bufferView": 3,
      "byteOffset": 8944,
      "componentType": 5126,
      "count": 2510,
      "max": [
        0.99999940395355225,
        0.99829846620559692,
        0.99677914381027222,
        1
      ],
      "min": [
        -0.9880291223526001,
        -0.99996471405029297,
        -0.99999946355819702,
        1
      ],
      "type": "VEC4"
    },
    {
      "bufferView": 1,
      "byteOffset": 4472,
      "componentType": 5126,
      "count": 2510,
      "max": [
        0.98530000448226929,
        0.97350001335144043
      ],
      "min": [
        0.022199999541044235,
        0.0062000001780688763
      ],
      "type": "VEC2"
    },
    {
      "bufferView": 0,
      "byteOffset": 11520,
      "componentType": 5125,
      "count": 2544,
      "max": [
        2509
      ],
      "min": [
        0
      ],
      "type": "SCALAR"
    },
    {
      "bufferView": 2,
      "byteOffset": 73656,
      "componentType": 5126,
      "count": 10,
      "max": [
        588.14752197265625,
        1403.8426513671875,
        -394.32269287109375
      ],
      "min": [
        -2537.777587890625,
        -2843.18359375,
        -394.32269287109375
      ],
      "type": "VEC3"
    },
    {
      "bufferView": 2,
      "byteOffset": 73776,
      "componentType": 5126,
      "count": 10,
      "max": [
        0,
        0,
        1
      ],
      "min": [
        0,
        0,
        1
      ],
      "type": "VEC3"
    },
    {
      "bufferView": 3,
      "byteOffset": 49104,
      "componentType": 5126,
      "count": 10,
      "max": [
        0.99927842617034912,
        0.83657622337341309,
        0,
        1
      ],
      "min": [
        0.54785066843032837,
        -0.5142672061920166,
        0,
        1
      ],
      "type": "VEC4"
    },
    {
      "bufferView": 1,
      "byteOffset": 24552,
      "componentType": 5126,
      "count": 10,
      "max": [
        1,
        1
      ],
      "min": [
        0,
        0
      ],
      "type": "VEC2"
    },
    {
      "bufferView": 0,
      "byteOffset": 21696,
      "componentType": 5125,
      "count": 24,
      "max": [
        9
      ],
      "min": [
        0
      ],
      "type": "SCALAR"
    }
  ],
  "asset": {
    "extras": {
      "author": "Jakub Badin (https://sketchfab.com/bublifuck)",
      "license": "CC-BY-4.0 (http://creativecommons.org/licenses/by/4.0/)",
      "source": "https://sketchfab.com/3d-models/elephant-566dc22018e44c229a3145425c17bfb1",
      "title": "Elephant"
    },
    "generator": "Sketchfab-6.75.0",
    "version": "2.0"
  },
  "bufferViews": [
    {
      "buffer": 0,
      "byteLength": 21792,
      "byteOffset": 0,
      "name": "floatBufferViews",
      "target": 34963
    },
    {
      "buffer": 0,
      "byteLength": 24632,
      "byteOffset": 21792,
      "byteStride": 8,
      "name": "floatBufferViews",
      "target": 34962
    },
    {
      "buffer": 0,
      "byteLength": 73896,
      "byteOffset": 46424,
      "byteStride": 12,
      "name": "floatBufferViews",
      "target": 34962
    },
    {
      "buffer": 0,
      "byteLength": 49264,
      "byteOffset": 120320,
      "byteStride": 16,
      "name": "floatBufferViews",
      "target": 34962
    }
  ],
  "buffers": [
    {
      "byteLength": 169584,
      "uri": "scene.bin"
    }
  ],
  "images": [
    {
      "uri": "textures/wire_148177027_baseColor.png"
    },
    {
      "uri": "textures/wire_153228184_baseColor.png"
    }
  ],
  "materials": [
    {
      "doubleSided": false,
      "emissiveFactor": [
        0,
        0,
        0
      ],
      "name": "wire_145028177",
      "pbrMetallicRoughness": {
        "baseColorFactor": [
          0.89000000000000001,
          0.89000000000000001,
          0.89000000000000001,
          1
        ],
        "metallicFactor": 0,
        "roughnessFactor": 0.59999999999999998
      }
    },
    {
      "doubleSided": true,
      "emissiveFactor": [
        0,
        0,
        0
      ],
      "name": "wire_148177027",
      "pbrMetallicRoughness": {
        "baseColorFactor": [
          1,
          1,
          1,
          1
        ],
        "baseColorTexture": {
          "index": 0,
          "texCoord": 0
        },
        "metallicFactor": 0,
        "roughnessFactor": 0.59999999999999998
      }
    },
    {
      "doubleSided": false,
      "name": "wire_153228184",
      "pbrMetallicRoughness": {
        "baseColorFactor": [
          0.31,
          0.31,
          0.31,
          1
        ],
        "baseColorTexture": {
          "index": 1,
          "texCoord": 0
        },
        "metallicFactor": 0,
        "roughnessFactor": 0.59999999999999998
      }
    }
  ],
  "meshes": [
    {
      "primitives": [
        {
          "attributes": {
            "NORMAL": 1,
            "POSITION": 0,
            "TANGENT": 2,
            "TEXCOORD_0": 3
          },
          "indices": 4,
          "material": 0,
          "mode": 4
        }
      ]
    },
    {
      "primitives": [
        {
          "attributes": {
            "NORMAL": 6,
            "POSITION": 5,
            "TANGENT": 7,
            "TEXCOORD_0": 8
          },
          "indices": 9,
          "material": 1,
          "mode": 4
        }
      ]
    },
    {
      "primitives": [
        {
          "attributes": {
            "NORMAL": 11,
            "POSITION": 10,
            "TANGENT": 12,
            "TEXCOORD_0": 13
          },
          "indices": 14,
          "material": 2,
          "mode": 4
        }
      ]
    }
  ],
  "nodes": [
    {
      "children": [
        1
      ],
      "name": "RootNode (gltf orientation matrix)",
      "rotation": [
        -0.70710678118654746,
        -0,
        -0,
        0.70710678118654757
      ]
    },
    {
      "children": [
        2
      ],
      "name": "RootNode (model correction matrix)"
    },
    {
      "children": [
        3,
        4,
        5
      ],
      "name": "Elephant.obj.cleaner"
    },
    {
      "mesh": 0,
      "name": ""
    },
    {
      "mesh": 1,
      "name": ""
    },
    {
      "mesh": 2,
      "name": ""
    }
  ],
  "samplers": [
    {
      "magFilter": 9729,
      "minFilter": 9987,
      "wrapS": 10497,
      "wrapT": 10497
    }
  ],
  "scene": 0,
  "scenes": [
    {
      "name": "OSG_Scene",
      "nodes": [
        0
      ]
    }
  ],
  "textures": [
    {
      "sampler": 0,
      "source": 0
    },
    {
      "sampler": 0,
      "source": 1
    }
  ]
}

