{
  "accessors": [
    {
      "bufferView": 2,
      "componentType": 5126,
      "count": 1724,
      "max": [
        14.616325378417969,
        2.480994462966919,
        4.563930988311768
      ],
      "min": [
        -3.9322268962860107,
        -15.355835914611816,
        -9.924240112304688
      ],
      "type": "VEC3"
    },
    {
      "bufferView": 2,
      "byteOffset": 20688,
      "componentType": 5126,
      "count": 1724,
      "max": [
        0.9994268417358398,
        0.9991779327392578,
        0.9999822974205017
      ],
      "min": [
        -0.996033251285553,
        -0.9998354911804199,
        -1.0
      ],
      "type": "VEC3"
    },
    {
      "bufferView": 3,
      "componentType": 5126,
      "count": 1724,
      "max": [
        0.9999893307685852,
        0.9289405941963196,
        0.997711181640625,
        1.0
      ],
      "min": [
        -0.6458380818367004,
        -0.7699396014213562,
        -0.9957535862922668,
        1.0
      ],
      "type": "VEC4"
    },
    {
      "bufferView": 3,
      "byteOffset": 27584,
      "componentType": 5126,
      "count": 1724,
      "max": [
        0.572549045085907,
        0.5960784554481506,
        0.6666666865348816,
        1.0
      ],
      "min": [
        0.0784313753247261,
        0.0470588244497776,
        0.003921568859368563,
        1.0
      ],
      "type": "VEC4"
    },
    {
      "bufferView": 1,
      "componentType": 5126,
      "count": 1724,
      "max": [
        0.6488000154495239,
        0.9980400204658508
      ],
      "min": [
        0.0019499999471008778,
        0.0019499999471008778
      ],
      "type": "VEC2"
    },
    {
      "bufferView": 0,
      "componentType": 5125,
      "count": 9744,
      "type": "SCALAR"
    }
  ],
  "asset": {
    "extras": {
      "author": "rorototo (https://sketchfab.com/rorototo)",
      "license": "CC-BY-4.0 (http://creativecommons.org/licenses/by/4.0/)",
      "source": "https://sketchfab.com/3d-models/sofa-b620f9934bf34b3193941418b99eb40e",
      "title": "Sofa"
    },
    "generator": "Sketchfab-12.68.0",
    "version": "2.0"
  },
  "bufferViews": [
    {
      "buffer": 0,
      "byteLength": 38976,
      "name": "floatBufferViews",
      "target": 34963
    },
    {
      "buffer": 0,
      "byteLength": 13792,
      "byteOffset": 38976,
      "byteStride": 8,
      "name": "floatBufferViews",
      "target": 34962
    },
    {
      "buffer": 0,
      "byteLength": 41376,
      "byteOffset": 52768,
      "byteStride": 12,
      "name": "floatBufferViews",
      "target": 34962
    },
    {
      "buffer": 0,
      "byteLength": 55168,
      "byteOffset": 94144,
      "byteStride": 16,
      "name": "floatBufferViews",
      "target": 34962
    }
  ],
  "buffers": [
    {
      "byteLength": 149312,
      "uri": "scene.bin"
    }
  ],
  "images": [
    {
      "uri": "textures/defaultMat_baseColor.png"
    },
    {
      "uri": "textures/defaultMat_normal.png"
    }
  ],
  "materials": [
    {
      "doubleSided": true,
      "name": "defaultMat",
      "normalTexture": {
        "index": 1,
        "scale": 0.25
      },
      "pbrMetallicRoughness": {
        "baseColorTexture": {
          "index": 0
        },
        "metallicFactor": 0.0,
        "roughnessFactor": 0.6
      }
    }
  ],
  "meshes": [
    {
      "name": "Object_0",
      "primitives": [
        {
          "attributes": {
            "COLOR_0": 3,
            "NORMAL": 1,
            "POSITION": 0,
            "TANGENT": 2,
            "TEXCOORD_0": 4
          },
          "indices": 5,
          "material": 0,
          "mode": 4
        }
      ]
    }
  ],
  "nodes": [
    {
      "children": [
        1
      ],
      "matrix": [
        0.008915879763662815,
        2.2203577725353414e-16,
        -0.9999602437019348,
        0.0,
        -0.9999602437019348,
        1.9797229996815913e-18,
        -0.008915879763662815,
        0.0,
        0.0,
        1.0,
        2.220446049250313e-16,
        0.0,
        -1.1427209377288818,
        -2.6027677107624608e-15,
        11.721823692321777,
        1.0
      ],
      "name": "Sketchfab_model"
    },
    {
      "children": [
        2
      ],
      "name": "SOFA.OBJ.cleaner.gles"
    },
    {
      "mesh": 0,
      "name": "Object_2"
    }
  ],
  "samplers": [
    {
      "magFilter": 9729,
      "minFilter": 9987,
      "wrapS": 10497,
      "wrapT": 10497
    }
  ],
  "scene": 0,
  "scenes": [
    {
      "name": "Sketchfab_Scene",
      "nodes": [
        0
      ]
    }
  ],
  "textures": [
    {
      "sampler": 0,
      "source": 0
    },
    {
      "sampler": 0,
      "source": 1
    }
  ]
}
