{
  "accessors": [
    {
      "bufferView": 2,
      "componentType": 5126,
      "count": 893,
      "max": [
        0.6104480028152466,
        1.0,
        0.2244890034198761
      ],
      "min": [
        -0.6104480028152466,
        -1.0,
        -0.2638689875602722
      ],
      "type": "VEC3"
    },
    {
      "bufferView": 2,
      "byteOffset": 10716,
      "componentType": 5126,
      "count": 893,
      "max": [
        1.0,
        1.0,
        1.0
      ],
      "min": [
        -1.0,
        -1.0,
        -1.0
      ],
      "type": "VEC3"
    },
    {
      "bufferView": 3,
      "componentType": 5126,
      "count": 893,
      "max": [
        1.0,
        0.3170037865638733,
        0.9999998211860657,
        1.0
      ],
      "min": [
        -1.0,
        -0.45105358958244324,
        -1.0,
        1.0
      ],
      "type": "VEC4"
    },
    {
      "bufferView": 1,
      "componentType": 5126,
      "count": 893,
      "max": [
        0.6520469784736633,
        1.0
      ],
      "min": [
        0.0,
        0.0
      ],
      "type": "VEC2"
    },
    {
      "bufferView": 0,
      "componentType": 5125,
      "count": 2724,
      "type": "SCALAR"
    },
    {
      "bufferView": 2,
      "byteOffset": 21432,
      "componentType": 5126,
      "count": 1747,
      "max": [
        0.49184298515319824,
        0.893913984298706,
        0.17707400023937225
      ],
      "min": [
        -0.5658090114593506,
        -0.9045389890670776,
        -0.10017000138759613
      ],
      "type": "VEC3"
    },
    {
      "bufferView": 2,
      "byteOffset": 42396,
      "componentType": 5126,
      "count": 1747,
      "max": [
        1.0,
        1.0,
        1.0
      ],
      "min": [
        -1.0,
        -1.0,
        -1.0
      ],
      "type": "VEC3"
    },
    {
      "bufferView": 3,
      "byteOffset": 14288,
      "componentType": 5126,
      "count": 1747,
      "max": [
        1.0,
        0.4571363627910614,
        0.999999463558197,
        1.0
      ],
      "min": [
        -0.9999995827674866,
        -0.8282123804092407,
        -1.0,
        -1.0
      ],
      "type": "VEC4"
    },
    {
      "bufferView": 1,
      "byteOffset": 7144,
      "componentType": 5126,
      "count": 1747,
      "max": [
        0.8183029890060425,
        1.0
      ],
      "min": [
        0.0,
        0.0
      ],
      "type": "VEC2"
    },
    {
      "bufferView": 0,
      "byteOffset": 10896,
      "componentType": 5125,
      "count": 5832,
      "type": "SCALAR"
    },
    {
      "bufferView": 2,
      "byteOffset": 63360,
      "componentType": 5126,
      "count": 1068,
      "max": [
        0.5576750040054321,
        0.691307008266449,
        0.2526879906654358
      ],
      "min": [
        -0.37266600131988525,
        -0.9036449790000916,
        -0.18866099417209625
      ],
      "type": "VEC3"
    },
    {
      "bufferView": 2,
      "byteOffset": 76176,
      "componentType": 5126,
      "count": 1068,
      "max": [
        0.9996537566184998,
        1.0,
        1.0
      ],
      "min": [
        -0.9997904896736145,
        -1.0,
        -0.9998576641082764
      ],
      "type": "VEC3"
    },
    {
      "bufferView": 3,
      "byteOffset": 42240,
      "componentType": 5126,
      "count": 1068,
      "max": [
        0.9999999403953552,
        0.9999970197677612,
        0.9999995827674866,
        1.0
      ],
      "min": [
        -0.9999973177909851,
        -0.9999663829803467,
        -1.0,
        -1.0
      ],
      "type": "VEC4"
    },
    {
      "bufferView": 1,
      "byteOffset": 21120,
      "componentType": 5126,
      "count": 1068,
      "max": [
        0.7534139752388,
        1.0
      ],
      "min": [
        0.0,
        0.0
      ],
      "type": "VEC2"
    },
    {
      "bufferView": 0,
      "byteOffset": 34224,
      "componentType": 5125,
      "count": 3312,
      "type": "SCALAR"
    },
    {
      "bufferView": 2,
      "byteOffset": 88992,
      "componentType": 5126,
      "count": 2700,
      "max": [
        0.5581709742546082,
        0.749770998954773,
        0.2638689875602722
      ],
      "min": [
        -0.4402270019054413,
        -0.8996289968490601,
        -0.2129029929637909
      ],
      "type": "VEC3"
    },
    {
      "bufferView": 2,
      "byteOffset": 121392,
      "componentType": 5126,
      "count": 2700,
      "max": [
        1.0,
        1.0,
        1.0
      ],
      "min": [
        -1.0,
        -1.0,
        -1.0
      ],
      "type": "VEC3"
    },
    {
      "bufferView": 3,
      "byteOffset": 59328,
      "componentType": 5126,
      "count": 2700,
      "max": [
        0.999987006187439,
        1.0,
        1.0,
        1.0
      ],
      "min": [
        -1.0,
        -1.0,
        -1.0,
        -1.0
      ],
      "type": "VEC4"
    },
    {
      "bufferView": 1,
      "byteOffset": 29664,
      "componentType": 5126,
      "count": 2700,
      "max": [
        0.686926007270813,
        1.0
      ],
      "min": [
        0.0,
        0.0
      ],
      "type": "VEC2"
    },
    {
      "bufferView": 0,
      "byteOffset": 47472,
      "componentType": 5125,
      "count": 6696,
      "type": "SCALAR"
    },
    {
      "bufferView": 2,
      "byteOffset": 153792,
      "componentType": 5126,
      "count": 1022,
      "max": [
        0.5580099821090698,
        0.8661320209503174,
        0.18394899368286133
      ],
      "min": [
        -0.5585910081863403,
        -0.9081140160560608,
        -0.08761940151453018
      ],
      "type": "VEC3"
    },
    {
      "bufferView": 2,
      "byteOffset": 166056,
      "componentType": 5126,
      "count": 1022,
      "max": [
        1.0,
        1.0,
        1.0
      ],
      "min": [
        -1.0,
        -1.0,
        -1.0
      ],
      "type": "VEC3"
    },
    {
      "bufferView": 3,
      "byteOffset": 102528,
      "componentType": 5126,
      "count": 1022,
      "max": [
        1.0,
        0.6055629849433899,
        1.0,
        1.0
      ],
      "min": [
        -1.0,
        -0.5392032265663147,
        -1.0,
        -1.0
      ],
      "type": "VEC4"
    },
    {
      "bufferView": 1,
      "byteOffset": 51264,
      "componentType": 5126,
      "count": 1022,
      "max": [
        0.8900039792060852,
        1.0
      ],
      "min": [
        0.0,
        0.0
      ],
      "type": "VEC2"
    },
    {
      "bufferView": 0,
      "byteOffset": 74256,
      "componentType": 5125,
      "count": 2604,
      "type": "SCALAR"
    },
    {
      "bufferView": 2,
      "byteOffset": 178320,
      "componentType": 5126,
      "count": 890,
      "max": [
        0.43527698516845703,
        0.21069200336933136,
        0.16126200556755066
      ],
      "min": [
        -0.4615060091018677,
        -0.9042909741401672,
        -0.1711370050907135
      ],
      "type": "VEC3"
    },
    {
      "bufferView": 2,
      "byteOffset": 189000,
      "componentType": 5126,
      "count": 890,
      "max": [
        1.0,
        1.0,
        0.9995124936103821
      ],
      "min": [
        -1.0,
        -1.0,
        -0.9984707832336426
      ],
      "type": "VEC3"
    },
    {
      "bufferView": 3,
      "byteOffset": 118880,
      "componentType": 5126,
      "count": 890,
      "max": [
        0.9999567270278931,
        0.9999568462371826,
        0.9999985098838806,
        1.0
      ],
      "min": [
        -0.9999999403953552,
        -0.9999998807907104,
        -0.9999997615814209,
        -1.0
      ],
      "type": "VEC4"
    },
    {
      "bufferView": 1,
      "byteOffset": 59440,
      "componentType": 5126,
      "count": 890,
      "max": [
        0.855534017086029,
        1.0
      ],
      "min": [
        0.0,
        0.0
      ],
      "type": "VEC2"
    },
    {
      "bufferView": 0,
      "byteOffset": 84672,
      "componentType": 5125,
      "count": 2760,
      "type": "SCALAR"
    },
    {
      "bufferView": 2,
      "byteOffset": 199680,
      "componentType": 5126,
      "count": 1644,
      "max": [
        0.48648300766944885,
        0.14257200062274933,
        0.14940400421619415
      ],
      "min": [
        -0.12109000235795975,
        -0.9049040079116821,
        -0.21503399312496185
      ],
      "type": "VEC3"
    },
    {
      "bufferView": 2,
      "byteOffset": 219408,
      "componentType": 5126,
      "count": 1644,
      "max": [
        0.9999697804450989,
        1.0,
        0.9999656081199646
      ],
      "min": [
        -0.999967634677887,
        -1.0,
        -0.9999005198478699
      ],
      "type": "VEC3"
    },
    {
      "bufferView": 3,
      "byteOffset": 133120,
      "componentType": 5126,
      "count": 1644,
      "max": [
        0.9999962449073792,
        0.9999995231628418,
        0.9999962449073792,
        1.0
      ],
      "min": [
        -0.9999958276748657,
        -1.0,
        -0.9999958872795105,
        -1.0
      ],
      "type": "VEC4"
    },
    {
      "bufferView": 1,
      "byteOffset": 66560,
      "componentType": 5126,
      "count": 1644,
      "max": [
        0.8791450262069702,
        1.0
      ],
      "min": [
        0.0,
        0.0
      ],
      "type": "VEC2"
    },
    {
      "bufferView": 0,
      "byteOffset": 95712,
      "componentType": 5125,
      "count": 5472,
      "type": "SCALAR"
    }
  ],
  "asset": {
    "extras": {
      "author": "joseph.casey97 (https://sketchfab.com/joseph.casey97)",
      "license": "CC-BY-4.0 (http://creativecommons.org/licenses/by/4.0/)",
      "source": "https://sketchfab.com/3d-models/bookcase-7a545709aa98429a9b30f812f70193f7",
      "title": "Bookcase"
    },
    "generator": "Sketchfab-12.68.0",
    "version": "2.0"
  },
  "bufferViews": [
    {
      "buffer": 0,
      "byteLength": 117600,
      "name": "floatBufferViews",
      "target": 34963
    },
    {
      "buffer": 0,
      "byteLength": 79712,
      "byteOffset": 117600,
      "byteStride": 8,
      "name": "floatBufferViews",
      "target": 34962
    },
    {
      "buffer": 0,
      "byteLength": 239136,
      "byteOffset": 197312,
      "byteStride": 12,
      "name": "floatBufferViews",
      "target": 34962
    },
    {
      "buffer": 0,
      "byteLength": 159424,
      "byteOffset": 436448,
      "byteStride": 16,
      "name": "floatBufferViews",
      "target": 34962
    }
  ],
  "buffers": [
    {
      "byteLength": 595872,
      "uri": "scene.bin"
    }
  ],
  "images": [
    {
      "uri": "textures/PaperBackBooks_Material_V3_baseColor.jpeg"
    },
    {
      "uri": "textures/PaperBackBooks_Material_V3_metallicRoughness.png"
    },
    {
      "uri": "textures/PaperBackBooks_Material_V3_normal.png"
    },
    {
      "uri": "textures/PaperBackBooks_Material_V2_baseColor.jpeg"
    },
    {
      "uri": "textures/PaperBackBooks_Material_V2_metallicRoughness.png"
    },
    {
      "uri": "textures/PaperBackBooks_Material_V2_normal.png"
    },
    {
      "uri": "textures/HardbackBooks_Material_V3_baseColor.jpeg"
    },
    {
      "uri": "textures/HardbackBooks_Material_V3_metallicRoughness.png"
    },
    {
      "uri": "textures/HardbackBooks_Material_V3_normal.png"
    },
    {
      "uri": "textures/HardbackBooks_Material_V1_baseColor.jpeg"
    },
    {
      "uri": "textures/HardbackBooks_Material_V1_metallicRoughness.png"
    },
    {
      "uri": "textures/HardbackBooks_Material_V1_normal.png"
    },
    {
      "uri": "textures/PaperBackBooks_Material_V1_baseColor.jpeg"
    },
    {
      "uri": "textures/PaperBackBooks_Material_V1_metallicRoughness.png"
    },
    {
      "uri": "textures/PaperBackBooks_Material_V1_normal.png"
    },
    {
      "uri": "textures/HardbackBooks_Material_V2_baseColor.jpeg"
    },
    {
      "uri": "textures/HardbackBooks_Material_V2_metallicRoughness.png"
    },
    {
      "uri": "textures/HardbackBooks_Material_V2_normal.png"
    },
    {
      "uri": "textures/BookShelf_Material_baseColor.jpeg"
    },
    {
      "uri": "textures/BookShelf_Material_metallicRoughness.png"
    },
    {
      "uri": "textures/BookShelf_Material_normal.png"
    }
  ],
  "materials": [
    {
      "doubleSided": true,
      "name": "PaperBackBooks_Material_V3",
      "normalTexture": {
        "index": 2
      },
      "occlusionTexture": {
        "index": 1
      },
      "pbrMetallicRoughness": {
        "baseColorTexture": {
          "index": 0
        },
        "metallicRoughnessTexture": {
          "index": 1
        }
      }
    },
    {
      "doubleSided": true,
      "name": "PaperBackBooks_Material_V2",
      "normalTexture": {
        "index": 5
      },
      "occlusionTexture": {
        "index": 4
      },
      "pbrMetallicRoughness": {
        "baseColorTexture": {
          "index": 3
        },
        "metallicRoughnessTexture": {
          "index": 4
        }
      }
    },
    {
      "doubleSided": true,
      "name": "HardbackBooks_Material_V3",
      "normalTexture": {
        "index": 8
      },
      "occlusionTexture": {
        "index": 7
      },
      "pbrMetallicRoughness": {
        "baseColorTexture": {
          "index": 6
        },
        "metallicRoughnessTexture": {
          "index": 7
        }
      }
    },
    {
      "doubleSided": true,
      "name": "HardbackBooks_Material_V1",
      "normalTexture": {
        "index": 11
      },
      "occlusionTexture": {
        "index": 10
      },
      "pbrMetallicRoughness": {
        "baseColorTexture": {
          "index": 9
        },
        "metallicRoughnessTexture": {
          "index": 10
        }
      }
    },
    {
      "doubleSided": true,
      "name": "PaperBackBooks_Material_V1",
      "normalTexture": {
        "index": 14
      },
      "occlusionTexture": {
        "index": 13
      },
      "pbrMetallicRoughness": {
        "baseColorTexture": {
          "index": 12
        },
        "metallicRoughnessTexture": {
          "index": 13
        }
      }
    },
    {
      "doubleSided": true,
      "name": "HardbackBooks_Material_V2",
      "normalTexture": {
        "index": 17
      },
      "occlusionTexture": {
        "index": 16
      },
      "pbrMetallicRoughness": {
        "baseColorTexture": {
          "index": 15
        },
        "metallicRoughnessTexture": {
          "index": 16
        }
      }
    },
    {
      "doubleSided": true,
      "name": "BookShelf_Material",
      "normalTexture": {
        "index": 20
      },
      "occlusionTexture": {
        "index": 19
      },
      "pbrMetallicRoughness": {
        "baseColorTexture": {
          "index": 18
        },
        "metallicRoughnessTexture": {
          "index": 19
        }
      }
    }
  ],
  "meshes": [
    {
      "name": "defaultMaterial",
      "primitives": [
        {
          "attributes": {
            "NORMAL": 1,
            "POSITION": 0,
            "TANGENT": 2,
            "TEXCOORD_0": 3
          },
          "indices": 4,
          "material": 6,
          "mode": 4
        }
      ]
    },
    {
      "name": "defaultMaterial",
      "primitives": [
        {
          "attributes": {
            "NORMAL": 6,
            "POSITION": 5,
            "TANGENT": 7,
            "TEXCOORD_0": 8
          },
          "indices": 9,
          "material": 5,
          "mode": 4
        }
      ]
    },
    {
      "name": "defaultMaterial",
      "primitives": [
        {
          "attributes": {
            "NORMAL": 11,
            "POSITION": 10,
            "TANGENT": 12,
            "TEXCOORD_0": 13
          },
          "indices": 14,
          "material": 4,
          "mode": 4
        }
      ]
    },
    {
      "name": "defaultMaterial",
      "primitives": [
        {
          "attributes": {
            "NORMAL": 16,
            "POSITION": 15,
            "TANGENT": 17,
            "TEXCOORD_0": 18
          },
          "indices": 19,
          "material": 3,
          "mode": 4
        }
      ]
    },
    {
      "name": "defaultMaterial",
      "primitives": [
        {
          "attributes": {
            "NORMAL": 21,
            "POSITION": 20,
            "TANGENT": 22,
            "TEXCOORD_0": 23
          },
          "indices": 24,
          "material": 2,
          "mode": 4
        }
      ]
    },
    {
      "name": "defaultMaterial",
      "primitives": [
        {
          "attributes": {
            "NORMAL": 26,
            "POSITION": 25,
            "TANGENT": 27,
            "TEXCOORD_0": 28
          },
          "indices": 29,
          "material": 1,
          "mode": 4
        }
      ]
    },
    {
      "name": "defaultMaterial",
      "primitives": [
        {
          "attributes": {
            "NORMAL": 31,
            "POSITION": 30,
            "TANGENT": 32,
            "TEXCOORD_0": 33
          },
          "indices": 34,
          "material": 0,
          "mode": 4
        }
      ]
    }
  ],
  "nodes": [
    {
      "children": [
        1
      ],
      "matrix": [
        1.0,
        0.0,
        0.0,
        0.0,
        0.0,
        2.220446049250313e-16,
        -1.0,
        0.0,
        0.0,
        1.0,
        2.220446049250313e-16,
        0.0,
        0.0,
        0.0,
        0.0,
        1.0
      ],
      "name": "Sketchfab_model"
    },
    {
      "children": [
        2,
        4,
        6,
        8,
        10,
        12,
        14
      ],
      "matrix": [
        1.0,
        0.0,
        0.0,
        0.0,
        0.0,
        -4.371139006309477e-08,
        0.999999999999999,
        0.0,
        0.0,
        -0.999999999999999,
        -4.371139006309477e-08,
        0.0,
        0.0,
        0.0,
        0.0,
        1.0
      ],
      "name": "Collada visual scene group"
    },
    {
      "children": [
        3
      ],
      "name": "BookCase_WithBooks"
    },
    {
      "mesh": 0,
      "name": "defaultMaterial"
    },
    {
      "children": [
        5
      ],
      "name": "BookCase_WithBooks"
    },
    {
      "mesh": 1,
      "name": "defaultMaterial"
    },
    {
      "children": [
        7
      ],
      "name": "BookCase_WithBooks"
    },
    {
      "mesh": 2,
      "name": "defaultMaterial"
    },
    {
      "children": [
        9
      ],
      "name": "BookCase_WithBooks"
    },
    {
      "mesh": 3,
      "name": "defaultMaterial"
    },
    {
      "children": [
        11
      ],
      "name": "BookCase_WithBooks"
    },
    {
      "mesh": 4,
      "name": "defaultMaterial"
    },
    {
      "children": [
        13
      ],
      "name": "BookCase_WithBooks"
    },
    {
      "mesh": 5,
      "name": "defaultMaterial"
    },
    {
      "children": [
        15
      ],
      "name": "BookCase_WithBooks"
    },
    {
      "mesh": 6,
      "name": "defaultMaterial"
    }
  ],
  "samplers": [
    {
      "magFilter": 9729,
      "minFilter": 9987,
      "wrapS": 10497,
      "wrapT": 10497
    }
  ],
  "scene": 0,
  "scenes": [
    {
      "name": "Sketchfab_Scene",
      "nodes": [
        0
      ]
    }
  ],
  "textures": [
    {
      "sampler": 0,
      "source": 0
    },
    {
      "sampler": 0,
      "source": 1
    },
    {
      "sampler": 0,
      "source": 2
    },
    {
      "sampler": 0,
      "source": 3
    },
    {
      "sampler": 0,
      "source": 4
    },
    {
      "sampler": 0,
      "source": 5
    },
    {
      "sampler": 0,
      "source": 6
    },
    {
      "sampler": 0,
      "source": 7
    },
    {
      "sampler": 0,
      "source": 8
    },
    {
      "sampler": 0,
      "source": 9
    },
    {
      "sampler": 0,
      "source": 10
    },
    {
      "sampler": 0,
      "source": 11
    },
    {
      "sampler": 0,
      "source": 12
    },
    {
      "sampler": 0,
      "source": 13
    },
    {
      "sampler": 0,
      "source": 14
    },
    {
      "sampler": 0,
      "source": 15
    },
    {
      "sampler": 0,
      "source": 16
    },
    {
      "sampler": 0,
      "source": 17
    },
    {
      "sampler": 0,
      "source": 18
    },
    {
      "sampler": 0,
      "source": 19
    },
    {
      "sampler": 0,
      "source": 20
    }
  ]
}
